<svg width="42" height="42" viewBox="0 0 42 42" fill="none" xmlns="http://www.w3.org/2000/svg">
<path d="M19.5734 4.39058C20.0224 3.00861 21.9776 3.00861 22.4266 4.39058L25.378 13.4742C25.5788 14.0922 26.1548 14.5106 26.8046 14.5106H36.3557C37.8087 14.5106 38.4129 16.3701 37.2373 17.2242L29.5104 22.8381C28.9846 23.2201 28.7647 23.8972 28.9655 24.5152L31.9169 33.5988C32.3659 34.9807 30.7842 36.1299 29.6086 35.2758L21.8817 29.6619C21.3559 29.2799 20.6441 29.2799 20.1183 29.6619L12.3914 35.2758C11.2158 36.1299 9.63407 34.9807 10.0831 33.5988L13.0345 24.5152C13.2353 23.8972 13.0154 23.2201 12.4896 22.8381L4.76266 17.2242C3.58709 16.3701 4.19125 14.5106 5.64434 14.5106H15.1954C15.8452 14.5106 16.4212 14.0922 16.622 13.4742L19.5734 4.39058Z" fill="white"/>
</svg>
